<?xml version="1.0" encoding="UTF-8" standalone="no"?>
<!-- Filename: c442db466ca6f750524416ac48247fbc2ca94c1f52612609aaba50c460656f5f.svg -->
<!-- Created with https://svgstud.io -->
<svg
  version="1.1"
  xmlns="http://www.w3.org/2000/svg"
  xmlns:xlink="http://www.w3.org/1999/xlink"
  xmlns:svg="http://www.w3.org/2000/svg"
  xmlns:rdf="http://www.w3.org/1999/02/22-rdf-syntax-ns#"
  xmlns:cc="http://creativecommons.org/ns#"
  xmlns:dc="http://purl.org/dc/elements/1.1/"
  viewBox="0 0 768 768"
  width="768"
  height="768"
  role="img"
  aria-labelledby="titleID descID"
>
  <title id="titleID">Warhammer 40k space marine helmet flat stylized</title>
  <desc id="descID">AI-generated SVG illustration: Warhammer 40k space marine helmet flat stylized, created on https://svgstud.io</desc>

  <rect width="100%" height="100%" fill="white" />

  <metadata id="copyright">
    Created by https://svgstud.io and licensed under CC-BY-SA 4.0 license. Please attribute https://svgstud.io
  </metadata>
  <metadata id="prompt">
    Warhammer 40k space marine helmet flat stylized
  </metadata>
  <metadata id="version">
    7
  </metadata>
  <metadata>
    <rdf:RDF
      xmlns:rdf="http://www.w3.org/1999/02/22-rdf-syntax-ns#"
      xmlns:cc="http://creativecommons.org/ns#"
      xmlns:dc="http://purl.org/dc/elements/1.1/"
    >
      <cc:Work rdf:about="">
        <cc:license rdf:resource="http://creativecommons.org/licenses/by-sa/4.0/" />
        <dc:creator>
          <cc:Agent>
            <dc:title>https://svgstud.io</dc:title>
          </cc:Agent>
        </dc:creator>
      </cc:Work>
      <cc:License rdf:about="http://creativecommons.org/licenses/by-sa/4.0/">
        <cc:permits rdf:resource="http://creativecommons.org/ns#Reproduction" />
        <cc:permits rdf:resource="http://creativecommons.org/ns#Distribution" />
        <cc:requires rdf:resource="http://creativecommons.org/ns#Notice" />
        <cc:requires rdf:resource="http://creativecommons.org/ns#Attribution" />
        <cc:permits rdf:resource="http://creativecommons.org/ns#DerivativeWorks" />
        <cc:requires rdf:resource="http://creativecommons.org/ns#ShareAlike" />
      </cc:License>
    </rdf:RDF>
  </metadata>
  <metadata id="uid">c442db466ca6f750524416ac48247fbc2ca94c1f52612609aaba50c460656f5f</metadata>

  <path stroke="none" fill="black" fill-rule="evenodd" d="M381.62,639.91C374.40,639.86 365.35,639.24 361.50,638.54C357.65,637.84 349.29,635.87 342.93,634.16C336.57,632.46 326.44,629.30 320.43,627.13C314.42,624.96 305.90,621.64 301.50,619.74C297.10,617.84 289.68,614.36 285.00,612.01C280.32,609.67 272.90,605.69 268.50,603.18C264.10,600.67 256.57,596.00 251.76,592.79C246.95,589.58 238.63,583.42 233.26,579.10C227.89,574.77 219.18,566.78 213.91,561.33C208.63,555.89 202.26,548.64 199.74,545.22C197.23,541.80 194.49,537.10 193.65,534.75C192.72,532.14 191.94,525.21 191.61,516.77C191.33,509.22 190.64,502.19 190.08,501.15C189.53,500.12 186.29,495.95 182.88,491.89C179.48,487.82 175.62,482.17 174.30,479.31C171.91,474.12 171.91,474.12 172.98,419.81C173.60,388.21 174.48,364.16 175.08,362.30C175.77,360.19 177.70,358.10 180.81,356.10C183.39,354.44 186.51,352.37 187.75,351.50C189.33,350.38 190.00,348.89 190.00,346.52C190.00,343.52 189.33,342.65 184.22,339.07C181.04,336.85 177.56,333.55 176.47,331.76C174.73,328.88 174.46,326.29 174.18,309.46C174.00,298.99 174.29,286.45 174.82,281.59C175.67,273.86 176.16,272.38 178.65,269.88C180.23,268.31 185.26,265.47 189.84,263.57C194.42,261.66 198.75,259.63 199.46,259.04C200.16,258.45 201.05,255.23 201.43,251.90C201.81,248.56 202.98,243.05 204.02,239.66C205.07,236.27 207.82,230.34 210.12,226.50C212.43,222.65 216.68,216.35 219.57,212.50C222.45,208.65 230.37,200.08 237.16,193.47C245.26,185.56 253.28,178.92 260.50,174.11C266.55,170.09 277.80,163.72 285.50,159.96C293.20,156.21 303.55,151.74 308.50,150.05C313.45,148.35 323.08,145.72 329.91,144.20C342.32,141.45 342.32,141.45 343.67,137.54C344.41,135.39 345.80,132.77 346.76,131.71C347.72,130.65 350.22,128.91 352.33,127.83C354.44,126.76 359.61,124.98 363.83,123.89C368.74,122.61 376.55,121.69 385.56,121.30C395.30,120.89 401.29,121.10 405.06,121.97C408.05,122.67 413.20,124.51 416.50,126.06C419.80,127.62 424.43,130.32 426.79,132.06C429.27,133.89 432.13,137.29 433.54,140.08C435.65,144.25 436.59,145.08 440.25,146.04C442.59,146.65 449.15,148.69 454.84,150.58C460.53,152.46 469.67,156.31 475.15,159.13C480.64,161.95 488.59,166.50 492.81,169.25C497.04,172.01 504.10,177.06 508.50,180.50C512.90,183.93 521.25,191.65 527.05,197.67C532.86,203.68 540.25,212.56 543.47,217.41C546.69,222.26 550.32,228.98 551.53,232.36C553.73,238.50 553.73,238.50 563.08,243.50C568.23,246.25 574.77,250.75 577.63,253.50C582.80,258.48 582.82,258.53 583.38,266.00C583.69,270.12 584.36,282.50 584.86,293.50C585.37,304.50 585.55,315.21 585.28,317.29C584.87,320.34 583.72,321.99 579.39,325.73C574.04,330.35 574.00,330.42 574.00,336.13C574.00,339.28 574.48,343.14 575.06,344.68C575.64,346.23 578.23,349.65 580.81,352.29C585.50,357.07 585.50,357.07 585.76,368.79C585.91,375.23 586.97,401.43 588.13,427.00C589.50,457.28 590.00,478.56 589.57,488.00C589.02,500.14 588.54,503.31 586.60,507.50C585.33,510.25 580.98,516.77 576.92,522.00C572.87,527.23 564.14,537.07 557.53,543.88C550.91,550.69 539.88,560.98 533.00,566.74C526.12,572.50 513.84,581.68 505.69,587.13C497.54,592.58 487.87,598.55 484.19,600.40C480.51,602.25 474.07,604.98 469.87,606.47C465.68,607.95 461.20,609.02 459.91,608.84C458.43,608.62 457.33,607.59 456.89,606.00C456.51,604.62 456.15,592.02 456.08,578.00C456.02,563.98 455.52,532.30 454.98,507.61C454.29,476.50 454.31,462.34 455.03,461.46C455.60,460.77 460.22,457.83 465.29,454.92C470.35,452.01 481.94,444.62 491.03,438.51C500.13,432.39 513.06,423.24 519.77,418.17C527.53,412.31 532.14,408.15 532.42,406.73C532.67,405.50 533.13,399.10 533.43,392.50C533.74,385.90 533.58,379.87 533.09,379.09C532.36,377.96 531.26,378.36 527.35,381.20C524.68,383.13 517.55,387.45 511.50,390.80C505.45,394.15 495.31,399.38 488.97,402.42C482.63,405.47 469.13,411.05 458.97,414.82C440.50,421.68 440.50,421.68 440.19,432.09C440.02,437.81 440.59,473.10 441.46,510.50C442.32,547.90 443.09,587.76 443.16,599.07C443.25,614.81 442.95,620.33 441.89,622.57C440.99,624.44 438.33,626.67 434.50,628.74C431.20,630.53 424.90,633.10 420.50,634.46C416.10,635.82 408.50,637.62 403.62,638.47C398.42,639.37 389.31,639.96 381.62,639.91zM383.50,624.53C390.10,624.35 398.67,623.51 402.53,622.66C406.40,621.81 413.38,619.74 418.03,618.05C422.69,616.36 427.85,613.91 429.50,612.59C432.50,610.19 432.50,610.19 432.80,573.85C432.97,553.86 432.66,512.66 432.12,482.31C431.52,448.84 430.73,426.37 430.12,425.22C429.56,424.18 426.59,421.39 423.53,419.02C420.46,416.65 417.62,415.05 417.22,415.45C416.83,415.85 416.65,436.95 416.83,462.34C417.01,487.73 417.46,529.61 417.83,555.40C418.29,587.55 418.17,602.76 417.45,603.74C416.88,604.52 411.25,606.31 404.95,607.71C397.26,609.42 390.21,610.28 383.50,610.35C374.10,610.45 372.69,610.17 360.00,605.84C352.57,603.30 342.94,599.53 338.59,597.46C330.67,593.69 330.67,593.69 331.31,509.80C331.81,444.03 331.68,425.84 330.72,425.57C330.05,425.38 324.32,424.25 318.00,423.05C311.68,421.86 299.98,418.71 292.00,416.06C284.02,413.41 273.37,409.38 268.32,407.10C263.27,404.82 255.62,400.96 251.32,398.52C247.02,396.08 242.19,393.01 240.59,391.71C237.68,389.34 237.68,389.34 237.27,365.92C237.04,353.04 236.40,341.04 235.85,339.25C235.30,337.46 234.46,336.00 233.99,336.00C233.52,336.00 232.66,338.36 232.08,341.25C231.50,344.14 230.59,350.55 230.05,355.50C229.52,360.45 228.38,372.80 227.51,382.93C226.64,393.07 225.48,403.35 224.94,405.78C224.09,409.55 224.24,410.66 226.00,413.49C227.12,415.31 232.32,420.89 237.55,425.89C242.77,430.89 251.20,438.20 256.28,442.15C261.35,446.09 270.54,452.62 276.69,456.65C282.85,460.69 294.77,467.55 303.19,471.91C318.50,479.83 318.50,479.83 318.26,537.16C318.13,568.70 318.02,596.44 318.01,598.82C318.00,603.14 318.00,603.14 315.25,601.18C313.74,600.11 307.32,596.42 301.00,592.99C294.68,589.57 285.84,584.34 281.36,581.39C276.88,578.44 272.96,575.34 272.64,574.51C272.13,573.18 272.52,573.19 275.78,574.58C277.83,575.45 281.21,576.86 283.29,577.71C285.38,578.56 287.22,579.08 287.39,578.88C287.55,578.67 288.46,557.66 289.41,532.18C290.82,494.36 290.90,485.58 289.85,484.31C289.14,483.46 285.17,480.49 281.03,477.72C276.89,474.94 268.03,468.49 261.35,463.37C254.68,458.25 243.65,448.91 236.85,442.60C225.36,431.93 224.46,431.30 223.86,433.50C223.50,434.79 222.88,454.45 222.48,477.18C222.08,499.91 221.64,522.55 221.50,527.50C221.36,532.45 221.19,536.69 221.12,536.92C221.06,537.15 217.67,534.11 213.61,530.17C209.54,526.23 205.68,523.00 205.04,523.00C204.28,523.00 204.11,523.80 204.56,525.25C204.94,526.49 205.93,528.85 206.75,530.50C207.58,532.15 214.16,539.39 221.37,546.58C228.59,553.77 239.68,563.50 246.00,568.21C252.32,572.91 261.77,579.35 267.00,582.51C272.23,585.67 283.93,591.84 293.00,596.20C302.07,600.57 314.00,606.32 319.50,608.98C325.00,611.64 333.10,614.97 337.50,616.39C341.90,617.80 350.23,620.07 356.00,621.42C361.77,622.78 367.62,624.10 369.00,624.37C370.38,624.64 376.90,624.71 383.50,624.53zM377.50,598.71C379.47,598.50 379.52,597.31 380.72,514.00C381.40,467.52 382.36,425.00 382.87,419.50C383.38,414.00 383.84,400.16 383.90,388.75C383.98,371.66 383.75,368.00 382.61,368.00C381.85,368.00 380.33,368.79 379.25,369.75C378.16,370.71 375.13,374.35 372.51,377.84C367.75,384.18 367.75,384.18 360.62,383.50C356.71,383.12 348.35,381.95 342.05,380.89C335.75,379.83 323.37,377.21 314.55,375.06C305.72,372.92 295.12,370.04 291.00,368.68C286.88,367.31 279.83,364.82 275.34,363.16C270.86,361.49 264.05,358.54 260.21,356.61C256.38,354.68 252.96,353.37 252.62,353.71C252.28,354.05 252.01,361.35 252.02,369.92C252.02,378.49 252.38,386.05 252.80,386.71C253.22,387.38 257.85,389.95 263.08,392.43C268.30,394.90 277.96,398.72 284.54,400.92C291.12,403.11 302.12,406.04 309.00,407.42C315.88,408.80 327.12,410.66 334.00,411.55C340.87,412.44 346.71,413.38 346.97,413.64C347.23,413.90 347.61,417.19 347.83,420.96C348.21,427.76 348.24,427.82 351.36,428.38C353.09,428.69 357.53,429.24 361.24,429.61C364.95,429.98 368.45,430.84 369.03,431.54C369.69,432.33 369.82,435.26 369.40,439.40C368.96,443.69 368.28,446.00 367.46,446.00C366.77,446.00 360.88,445.09 354.38,443.98C347.87,442.87 341.98,442.18 341.28,442.45C340.39,442.79 340.00,445.32 340.02,450.72C340.02,455.00 340.36,459.01 340.77,459.63C341.17,460.24 346.76,462.39 353.20,464.39C359.63,466.40 365.59,468.73 366.45,469.59C367.30,470.44 368.00,472.70 368.00,474.60C368.00,476.88 367.44,478.28 366.37,478.69C365.48,479.03 359.55,477.88 353.20,476.13C344.13,473.63 341.47,473.22 340.82,474.22C340.36,474.93 340.10,479.31 340.24,483.96C340.50,492.42 340.50,492.42 353.33,497.09C360.39,499.66 366.61,502.21 367.15,502.75C367.69,503.29 367.99,505.70 367.81,508.11C367.51,512.39 367.42,512.49 364.25,512.25C362.46,512.11 356.79,510.64 351.65,509.00C346.50,507.35 341.78,506.00 341.15,506.00C340.38,506.00 340.00,508.75 340.00,514.38C340.00,519.88 340.43,523.10 341.25,523.75C341.94,524.30 347.65,526.63 353.95,528.92C360.25,531.21 365.99,533.58 366.70,534.17C367.42,534.76 368.00,536.28 368.00,537.54C368.00,538.80 367.73,540.55 367.39,541.42C367.06,542.29 365.93,543.00 364.87,543.00C363.82,543.00 358.09,541.42 352.14,539.50C346.18,537.58 341.02,536.00 340.65,536.00C340.29,536.00 340.00,538.90 340.00,542.44C340.00,546.48 340.46,549.18 341.24,549.69C341.93,550.14 348.12,552.75 354.99,555.50C367.50,560.50 367.50,560.50 367.80,565.75C368.08,570.53 367.91,571.00 365.99,571.00C364.82,571.00 359.09,569.20 353.26,567.00C347.42,564.80 342.05,563.00 341.32,563.00C340.32,563.00 340.00,565.31 340.00,572.57C340.00,582.14 340.00,582.14 354.25,588.86C362.09,592.55 370.07,596.33 372.00,597.24C373.93,598.16 376.40,598.82 377.50,598.71zM386.65,593.46C387.42,592.42 388.06,588.77 388.13,585.06C388.21,581.45 388.16,546.33 388.03,507.00C387.90,467.68 387.62,435.31 387.40,435.08C387.18,434.85 386.74,434.93 386.41,435.25C386.09,435.58 385.43,437.56 384.94,439.67C384.45,441.78 384.04,476.18 384.02,516.12C384.01,556.07 384.29,590.22 384.65,592.02C385.26,595.05 385.41,595.16 386.65,593.46zM484.95,578.00C485.54,578.00 492.25,573.29 499.85,567.54C507.46,561.79 520.39,551.32 528.59,544.29C536.78,537.26 549.63,525.42 557.14,518.00C564.64,510.57 572.01,502.52 573.50,500.10C575.32,497.15 576.39,493.76 576.75,489.85C577.04,486.63 576.88,483.99 576.39,483.98C575.90,483.98 571.00,488.63 565.50,494.33C560.00,500.03 550.10,509.45 543.50,515.27C536.90,521.08 526.09,530.26 519.47,535.67C512.85,541.08 503.53,547.96 498.75,550.96C493.34,554.37 489.69,557.38 489.07,558.96C488.53,560.36 487.36,564.42 486.49,568.00C485.61,571.58 484.66,575.29 484.38,576.25C484.10,577.21 484.35,578.00 484.95,578.00zM554.54,492.80C555.21,492.09 560.56,485.89 566.41,479.04C572.27,472.19 577.34,465.48 577.68,464.12C578.02,462.77 577.78,452.18 577.15,440.58C576.51,428.99 575.47,410.73 574.83,400.00C573.68,380.50 573.68,380.50 569.57,376.50C567.30,374.30 562.19,369.65 558.21,366.17C554.23,362.70 550.24,358.42 549.34,356.68C547.84,353.78 547.63,353.68 546.92,355.51C546.49,356.60 546.11,360.47 546.07,364.11C546.01,369.55 546.43,371.36 548.45,374.34C550.84,377.86 550.92,378.57 551.41,401.23C551.68,414.03 552.23,440.16 552.62,459.30C553.17,486.75 553.58,493.83 554.54,492.80zM199.68,490.00C200.74,490.00 201.00,484.18 201.00,460.25C201.01,443.89 201.30,423.39 201.66,414.70C202.32,398.89 202.32,398.89 206.91,396.70C211.50,394.50 211.50,394.50 212.15,387.00C212.50,382.88 212.98,371.96 213.22,362.75C213.64,346.00 213.64,346.00 206.43,346.00C200.77,346.00 199.08,346.34 198.61,347.58C198.27,348.45 197.99,351.71 197.99,354.83C197.98,357.95 197.40,361.62 196.71,363.00C196.01,364.38 193.66,366.43 191.47,367.56C187.86,369.44 187.44,370.07 186.85,374.56C186.50,377.28 185.87,399.52 185.45,424.00C184.74,465.71 184.80,468.72 186.48,472.00C187.47,473.93 190.55,478.76 193.32,482.75C196.10,486.74 198.96,490.00 199.68,490.00zM457.00,397.96C458.38,397.97 464.77,396.20 471.20,394.03C477.64,391.87 487.99,387.63 494.20,384.62C500.42,381.61 509.75,376.51 514.94,373.29C522.37,368.68 524.54,366.81 525.16,364.48C525.60,362.85 525.57,354.95 525.09,346.91C524.62,338.87 523.67,331.26 522.99,329.99C521.85,327.85 521.68,327.81 520.76,329.46C520.21,330.44 519.44,338.01 519.05,346.28C518.34,361.31 518.34,361.31 515.25,364.07C513.55,365.59 508.19,369.19 503.33,372.08C498.47,374.98 485.50,381.98 474.50,387.65C462.14,394.02 455.45,397.96 457.00,397.96zM573.25,368.98C573.66,368.99 574.00,367.37 574.00,365.39C574.00,362.64 573.05,360.64 570.03,357.04C567.85,354.43 565.60,351.08 565.03,349.58C564.46,348.09 564.00,343.70 564.00,339.84C564.00,332.80 564.00,332.80 557.92,333.51C554.58,333.90 550.64,334.53 549.17,334.92C546.80,335.55 546.46,336.18 546.19,340.50C546.02,343.18 546.13,346.40 546.45,347.66C546.78,348.97 549.29,351.43 552.26,353.38C555.14,355.26 560.88,359.53 565.00,362.88C569.12,366.23 572.84,368.97 573.25,368.98zM387.27,355.87C387.69,355.94 394.66,353.35 402.77,350.11C410.87,346.87 421.57,342.42 426.55,340.21C431.53,338.01 440.98,333.48 447.55,330.14C454.12,326.79 462.36,322.46 465.86,320.51C469.35,318.57 479.25,312.64 487.86,307.34C496.46,302.04 506.88,295.46 511.00,292.72C515.12,289.98 520.19,286.13 522.25,284.17C524.31,282.20 526.00,279.96 526.00,279.19C526.00,278.30 525.40,278.02 524.37,278.41C523.47,278.76 516.83,280.81 509.62,282.97C502.40,285.14 489.15,288.74 480.17,290.98C471.19,293.23 454.91,296.85 444.01,299.02C433.10,301.20 423.06,303.41 421.70,303.92C420.34,304.44 416.36,307.42 412.86,310.55C409.36,313.68 402.00,318.88 396.50,322.11C391.00,325.34 385.87,327.98 385.11,327.99C384.34,328.00 378.94,325.44 373.11,322.32C367.27,319.20 358.04,313.97 352.59,310.70C347.14,307.43 340.67,303.48 338.22,301.92C335.76,300.36 331.44,298.64 328.63,298.09C325.81,297.54 315.62,295.69 306.00,293.98C296.38,292.27 282.20,289.29 274.50,287.36C266.80,285.44 254.26,281.83 246.64,279.34C239.02,276.85 232.42,275.20 231.98,275.66C231.54,276.12 230.48,282.35 229.63,289.50C228.78,296.65 227.80,305.23 227.46,308.56C227.01,313.00 227.20,314.92 228.17,315.73C228.90,316.33 233.10,318.25 237.50,320.00C241.90,321.75 251.12,325.11 258.00,327.46C264.88,329.81 277.02,333.59 285.00,335.85C292.98,338.10 307.60,341.75 317.50,343.95C327.40,346.15 343.74,349.32 353.82,351.01C363.89,352.69 375.37,354.44 379.32,354.90C383.27,355.36 386.84,355.80 387.27,355.87zM214.00,340.74C215.09,340.55 215.67,338.58 216.13,333.49C216.47,329.65 216.81,317.18 216.88,305.79C216.99,286.03 216.91,285.02 215.00,284.00C213.64,283.27 212.40,283.25 211.12,283.94C210.08,284.49 208.96,285.67 208.62,286.55C208.28,287.44 208.00,298.18 208.00,310.43C208.00,324.75 208.42,333.91 209.16,336.10C209.80,337.97 210.82,339.84 211.41,340.25C212.01,340.66 213.18,340.88 214.00,340.74zM200.36,332.96C200.83,332.98 200.90,332.21 200.52,331.25C200.13,330.29 199.18,325.68 198.41,321.00C197.64,316.32 197.03,309.35 197.06,305.50C197.08,301.65 197.44,295.42 197.86,291.65C198.59,285.09 198.84,284.60 203.81,279.81C206.69,277.03 209.00,273.91 209.00,272.79C209.00,271.03 208.56,270.86 205.44,271.44C203.49,271.81 199.55,273.01 196.69,274.12C193.84,275.22 190.42,277.01 189.09,278.10C186.76,280.01 186.66,280.70 185.88,298.79C185.43,309.08 185.32,318.92 185.63,320.65C185.93,322.39 187.38,324.92 188.84,326.29C190.30,327.66 193.30,329.71 195.50,330.84C197.70,331.98 199.89,332.93 200.36,332.96zM385.25,317.32C385.66,317.08 386.00,316.06 386.00,315.06C386.00,314.05 385.36,312.00 384.58,310.49C383.80,308.98 383.39,307.24 383.67,306.63C383.95,306.01 389.11,301.90 395.13,297.50C401.16,293.10 407.87,287.88 410.05,285.90C414.00,282.31 414.00,282.31 414.03,262.90C414.04,252.23 414.71,228.20 415.51,209.50C416.31,190.80 417.26,167.81 417.63,158.42C418.30,141.34 418.30,141.34 414.03,139.63C411.67,138.69 409.64,138.05 409.50,138.21C409.36,138.37 408.51,150.65 407.60,165.50C406.69,180.35 405.51,203.07 404.99,216.00C404.47,228.93 404.03,249.70 404.02,262.17C404.00,284.84 404.00,284.84 399.75,288.49C397.41,290.49 393.51,293.45 391.08,295.07C388.65,296.68 385.84,298.00 384.83,298.00C383.83,298.00 376.73,294.85 369.07,291.00C361.40,287.15 354.53,284.00 353.79,284.00C353.06,284.00 348.88,285.38 344.51,287.06C340.14,288.74 335.98,290.60 335.28,291.18C334.58,291.77 334.00,293.02 334.00,293.97C334.00,295.16 336.11,296.58 340.75,298.52C344.46,300.07 354.02,304.47 362.00,308.29C369.98,312.11 378.30,315.80 380.50,316.50C382.70,317.19 384.84,317.56 385.25,317.32zM555.25,317.67C555.94,317.39 559.95,315.98 564.17,314.53C568.40,313.07 572.30,311.34 572.86,310.67C573.54,309.86 573.46,302.25 572.61,287.42C571.92,275.31 571.00,264.81 570.56,264.10C570.12,263.39 566.78,260.88 563.13,258.53C559.48,256.18 553.70,252.85 550.28,251.13C546.86,249.41 543.09,248.00 541.91,248.00C539.76,248.00 539.76,248.00 540.16,280.00C540.56,311.34 540.61,312.06 542.75,314.20C543.96,315.40 545.29,316.04 545.72,315.60C546.15,315.17 546.37,307.10 546.21,297.66C546.05,288.22 545.52,275.55 545.03,269.50C544.49,262.80 544.50,258.13 545.07,257.55C545.65,256.96 547.02,257.37 548.75,258.66C550.26,259.79 552.26,262.01 553.18,263.60C554.48,265.83 555.13,271.14 556.01,286.66C557.16,306.76 557.15,306.84 554.91,310.74C553.55,313.09 552.92,315.36 553.33,316.41C553.70,317.38 554.56,317.94 555.25,317.67zM383.91,288.95C384.13,288.98 386.72,287.19 389.66,284.97C395.00,280.94 395.00,280.94 395.01,272.72C395.01,268.20 395.46,245.60 396.01,222.50C396.55,199.40 397.46,171.50 398.03,160.50C398.60,149.50 399.32,138.87 399.64,136.89C400.16,133.62 399.96,133.21 397.61,132.62C396.17,132.26 390.02,132.43 383.93,133.01C377.85,133.58 370.69,134.52 368.04,135.08C365.39,135.65 362.41,136.71 361.43,137.43C359.90,138.55 359.45,141.52 358.38,157.62C357.69,168.00 356.58,198.19 355.90,224.70C354.87,265.40 354.89,273.17 356.05,274.56C356.81,275.47 363.29,279.07 370.46,282.56C377.63,286.05 383.68,288.93 383.91,288.95zM319.46,284.91C325.35,284.99 327.73,284.44 334.96,281.37C339.66,279.37 344.01,277.33 344.62,276.85C345.41,276.23 345.93,260.62 346.36,224.23C346.70,195.78 347.36,168.00 347.84,162.50C348.32,157.00 348.65,152.41 348.57,152.30C348.50,152.19 345.40,152.79 341.70,153.63C338.00,154.48 334.36,155.78 333.61,156.53C332.67,157.47 332.04,162.06 331.58,171.20C331.21,178.51 330.51,198.45 330.03,215.50C329.54,232.55 328.73,247.58 328.24,248.91C327.47,250.96 327.24,251.06 326.68,249.62C326.32,248.68 325.54,242.87 324.94,236.71C324.28,229.98 324.02,213.12 324.30,194.50C324.54,177.45 325.08,162.26 325.49,160.75C326.09,158.53 325.90,158.00 324.51,158.00C323.57,158.00 318.68,159.38 313.65,161.06C308.62,162.74 298.97,166.85 292.21,170.19C285.45,173.52 275.10,179.44 269.21,183.33C262.02,188.07 254.87,194.03 247.44,201.45C241.36,207.53 233.58,216.30 230.16,220.95C226.73,225.59 222.61,232.12 220.99,235.45C219.37,238.78 217.61,244.43 217.07,248.00C216.53,251.57 215.79,259.00 215.43,264.50C214.82,273.81 214.93,274.69 216.96,277.25C218.16,278.76 219.72,280.00 220.43,280.00C221.20,280.00 223.59,274.28 226.38,265.75C228.94,257.91 233.26,246.87 235.98,241.21C238.70,235.55 243.35,227.23 246.32,222.71C249.29,218.20 254.93,210.82 258.85,206.32C262.78,201.82 268.99,195.59 272.66,192.48C276.33,189.36 280.94,185.81 282.91,184.59C284.89,183.36 287.29,182.06 288.25,181.71C289.35,181.30 290.00,181.55 290.00,182.37C290.00,183.09 285.92,188.37 280.94,194.09C275.95,199.82 268.55,209.48 264.50,215.57C260.44,221.66 254.67,231.56 251.68,237.57C248.69,243.58 245.32,251.43 244.21,255.00C243.09,258.57 241.92,262.69 241.60,264.14C241.26,265.69 241.53,267.19 242.26,267.78C242.94,268.34 249.80,270.59 257.50,272.79C265.20,274.99 276.00,277.78 281.50,278.99C287.00,280.20 296.23,282.01 302.00,283.00C307.77,284.00 315.63,284.86 319.46,284.91zM502.67,272.00C503.52,272.00 510.11,270.40 517.32,268.45C524.52,266.50 530.93,264.48 531.55,263.96C532.24,263.39 532.94,257.88 533.30,250.28C533.90,237.55 533.90,237.55 529.36,228.94C526.86,224.21 522.83,217.67 520.40,214.42C517.97,211.16 513.71,205.91 510.94,202.75C508.16,199.59 502.20,193.92 497.69,190.14C493.19,186.37 485.23,180.35 480.00,176.76C474.77,173.17 467.20,168.58 463.16,166.56C459.12,164.54 451.19,161.34 445.53,159.44C439.88,157.55 433.80,156.00 432.04,156.00C430.19,156.00 428.99,156.46 429.19,157.08C429.39,157.67 433.59,159.82 438.53,161.86C443.46,163.90 450.20,167.09 453.50,168.95C456.80,170.82 461.41,173.64 463.75,175.22C466.08,176.80 472.00,181.90 476.89,186.56C481.78,191.21 486.54,196.63 487.48,198.59C488.41,200.56 488.94,202.40 488.65,202.68C488.37,202.97 486.51,201.97 484.54,200.46C482.56,198.95 480.70,197.96 480.41,198.26C480.11,198.55 481.42,201.88 483.31,205.65C485.20,209.42 488.34,216.78 490.29,222.00C492.24,227.22 494.96,236.90 496.35,243.50C497.73,250.10 499.17,258.88 499.56,263.00C499.94,267.12 500.45,270.84 500.69,271.25C500.92,271.66 501.82,272.00 502.67,272.00z" />

</svg>
