<?xml version="1.0" encoding="UTF-8"?>
<svg version="1.1" xmlns="http://www.w3.org/2000/svg" width="225" height="225">
<path d="M0 0 C74.25 0 148.5 0 225 0 C225 74.25 225 148.5 225 225 C150.75 225 76.5 225 0 225 C0 150.75 0 76.5 0 0 Z " fill="#FDFDFD" transform="translate(0,0)"/>
<path d="M0 0 C0 0.99 0 1.98 0 3 C-0.680625 3.598125 -1.36125 4.19625 -2.0625 4.8125 C-4.31432452 6.87966154 -4.31432452 6.87966154 -4.0625 9.9375 C-2.71363667 13.82540018 -1.31055827 15.55306563 2 18 C5.5 18.83333333 5.5 18.83333333 9 18 C12.06307631 16.02033737 12.06307631 16.02033737 14 13 C14.41890218 9.78938212 14.41890218 9.78938212 14 7 C18.59552826 7.52105432 21.71072997 9.54194749 25.375 12.1875 C25.94500732 12.59170166 26.51501465 12.99590332 27.10229492 13.41235352 C31.28198081 16.40736843 35.27855304 19.45164359 39 23 C39 23.66 39 24.32 39 25 C37.2984375 25.680625 37.2984375 25.680625 35.5625 26.375 C31.95278308 27.57095806 31.95278308 27.57095806 31 30 C30.50487319 34.37362014 30.50776134 36.31955244 33.125 39.9375 C35.83821424 42.20644315 35.83821424 42.20644315 39.0625 42.5 C42.27875747 41.95255192 43.7075691 41.2924309 46 39 C46.33 38.01 46.66 37.02 47 36 C49.3374224 36.68655232 50.69844968 37.54402107 52.04785156 39.58447266 C53.13218069 41.6366199 54.14051541 43.71064413 55.125 45.8125 C55.47175781 46.52470703 55.81851563 47.23691406 56.17578125 47.97070312 C57.14132442 49.97022835 58.07662804 51.98071742 59 54 C59.43054688 54.93199219 59.86109375 55.86398438 60.3046875 56.82421875 C61 59 61 59 60 62 C58.9275 61.7525 57.855 61.505 56.75 61.25 C53.06895866 60.65043194 53.06895866 60.65043194 50.5625 62.4375 C48.38882634 66.0023248 48.19049951 68.92746146 49 73 C50.39685006 75.6469872 50.39685006 75.6469872 53 77 C56.80278615 77.47534827 59.01354252 77.67905788 62.21875 75.47265625 C62.8065625 74.98667969 63.394375 74.50070313 64 74 C65.95403042 81.72888819 66.22428282 89.05042008 66 97 C65.41347656 96.66742188 64.82695312 96.33484375 64.22265625 95.9921875 C60.85911771 94.49071336 58.50554057 95.10768058 55 96 C51.98378337 98.43243277 51.99459474 100.04864734 51.5625 103.9375 C51.70526403 106.87514452 52.12332221 108.2573681 53.4375 111 C57.15801827 113.90381914 60.44499552 113.4379812 65 113 C64.69475466 121.60791872 63.06606823 128.95691869 60 137 C59.01 136.67 58.02 136.34 57 136 C57 135.34 57 134.68 57 134 C50.12554653 132.57302077 50.12554653 132.57302077 43.8125 135 C41.69759993 137.93310951 41.69759993 137.93310951 41.9375 141.625 C42.73795427 144.94880333 42.73795427 144.94880333 44.625 146.875 C47.71297854 148.33772668 50.61725514 148.67473607 54 149 C52.6332278 153.86866423 50.45363202 157.71634042 47.5625 161.8125 C47.16740234 162.39708984 46.77230469 162.98167969 46.36523438 163.58398438 C43.37752295 167.87415902 43.37752295 167.87415902 40 169 C39.5978125 167.824375 39.5978125 167.824375 39.1875 166.625 C38.15185568 163.71885077 38.15185568 163.71885077 35 162 C31.80052387 161.6596302 29.62381414 161.75375758 26.625 162.9375 C24.32277658 165.85955281 24.4460944 168.26815733 24.60546875 171.91015625 C24.83987766 174.1756602 24.83987766 174.1756602 26.8125 175.9375 C27.534375 176.288125 28.25625 176.63875 29 177 C29.99 177.66 30.98 178.32 32 179 C14.74025974 194 14.74025974 194 7 194 C7.061875 192.906875 7.12375 191.81375 7.1875 190.6875 C7.2771913 187.17176085 7.2771913 187.17176085 5.9375 185.0625 C2.87116726 183.38096269 0.42486249 183.63948816 -3 184 C-5.55851025 184.81452316 -5.55851025 184.81452316 -7 187 C-7.52195005 189.90038154 -7.33424573 191.99178842 -7 195 C-6.01 195.66 -5.02 196.32 -4 197 C-4 197.66 -4 198.32 -4 199 C-6.72681111 199.84179395 -9.45601443 200.67363069 -12.1875 201.5 C-12.95642578 201.73847656 -13.72535156 201.97695312 -14.51757812 202.22265625 C-18.44356128 203.40213617 -21.85048821 204.3326262 -26 204 C-25.938125 203.071875 -25.87625 202.14375 -25.8125 201.1875 C-25.77036523 198.11600478 -25.77036523 198.11600478 -27 196.125 C-30.33905554 194.24678126 -33.20998874 194.69920546 -37 195 C-37.66 195.66 -38.32 196.32 -39 197 C-39.02308597 199.22128555 -39.02308597 199.22128555 -38.625 201.625 C-38.51414062 202.44226563 -38.40328125 203.25953125 -38.2890625 204.1015625 C-38.19367188 204.72804687 -38.09828125 205.35453125 -38 206 C-40.37507855 206.02719556 -42.74983964 206.04693247 -45.125 206.0625 C-45.79015625 206.07087891 -46.4553125 206.07925781 -47.140625 206.08789062 C-51.20681354 206.10782292 -55.0120092 205.78890161 -59 205 C-58.79375 204.071875 -58.5875 203.14375 -58.375 202.1875 C-57.63307034 198.84826598 -57.63307034 198.84826598 -60 196 C-63.5 195.58333333 -63.5 195.58333333 -67 196 C-67.66 196.66 -68.32 197.32 -69 198 C-69 199.32 -69 200.64 -69 202 C-70.41805831 201.71517632 -71.83440379 201.42181856 -73.25 201.125 C-74.43335937 200.88136719 -74.43335937 200.88136719 -75.640625 200.6328125 C-77.96831144 200.00849925 -79.89031952 199.15161458 -82 198 C-81.9071875 196.8553125 -81.9071875 196.8553125 -81.8125 195.6875 C-81.78795635 193.02681256 -81.78795635 193.02681256 -83.125 191.1875 C-85.85987361 189.45541338 -87.83740129 189.59626399 -91 190 C-91.66 190.99 -92.32 191.98 -93 193 C-113.48955083 185.36231797 -128.03474372 167.01977828 -137.18212891 147.81787109 C-142.59533608 135.78600823 -142.59533608 135.78600823 -141 131 C-140.35675781 131.73863281 -139.71351563 132.47726563 -139.05078125 133.23828125 C-121.90902941 152.6136748 -97.67556041 171.27848352 -70.93115234 173.22314453 C-58.00943278 173.81718237 -45.04110118 174.29556282 -33 169 C-31.91203125 168.525625 -30.8240625 168.05125 -29.703125 167.5625 C-12.45839008 159.14253553 -0.44940557 144.215963 5.8125 126.1875 C9.49919969 112.56366148 6.39725606 97.57043501 -0.3125 85.375 C-6.6111769 75.48473713 -15.16870544 70.77193645 -26.2578125 67.59375 C-31.12138416 66.54066896 -36.03877283 66.24720891 -41 66 C-39.8758824 67.29243468 -38.75067408 68.58392075 -37.625 69.875 C-36.99851562 70.59429687 -36.37203125 71.31359375 -35.7265625 72.0546875 C-34.52573166 73.4076598 -33.2791655 74.7208345 -32 76 C-32.95519531 76.42410156 -33.91039063 76.84820312 -34.89453125 77.28515625 C-55.69588838 86.29898991 -55.69588838 86.29898991 -71 102 C-82.07529297 104.57872493 -95.68957367 104.15521317 -106 99 C-106 98.34 -106 97.68 -106 97 C-101.05 96.505 -101.05 96.505 -96 96 C-96.66 94.02 -97.32 92.04 -98 90 C-92.555 89.505 -92.555 89.505 -87 89 C-87 87.68 -87 86.36 -87 85 C-87 84.01 -87 83.02 -87 82 C-83.7 82.33 -80.4 82.66 -77 83 C-77.350625 82.236875 -77.70125 81.47375 -78.0625 80.6875 C-79 78 -79 78 -78 75 C-73.05 75 -68.1 75 -63 75 C-64.18039031 67.72092642 -65.33288069 62.54066692 -70.8125 57.25 C-77.31347499 53.53515715 -83.70412855 53.76252136 -91 54 C-91 54.99 -91 55.98 -91 57 C-87.535 58.485 -87.535 58.485 -84 60 C-89.84286153 65.14171815 -96.60833245 65.30170072 -104 65 C-101.28922757 67.97126708 -98.86848614 68.88243734 -95 70 C-98.18025577 73.68405866 -101.201622 75.11258392 -105.75 76.75 C-106.92046875 77.17796875 -108.0909375 77.6059375 -109.296875 78.046875 C-110.63492188 78.51867187 -110.63492188 78.51867187 -112 79 C-110.68 79.66 -109.36 80.32 -108 81 C-112.65765772 85.25264401 -118.81742008 87 -125 87 C-121.82460444 90.42578949 -121.82460444 90.42578949 -118 93 C-118 93.66 -118 94.32 -118 95 C-122.95152495 95.80984194 -127.64952275 96.1178734 -132.68359375 96.09765625 C-133.38396255 96.0962413 -134.08433136 96.09482635 -134.80592346 96.09336853 C-137.01649466 96.08782477 -139.22696004 96.07528326 -141.4375 96.0625 C-142.94726415 96.05747771 -144.45702991 96.05291609 -145.96679688 96.04882812 C-149.64456493 96.03787387 -153.32227212 96.0206489 -157 96 C-156.54687348 89.56061489 -155.6506418 83.67446014 -153.5625 77.5625 C-153.3037207 76.80171143 -153.04494141 76.04092285 -152.77832031 75.25708008 C-147.58861368 60.70895917 -139.94847806 47.76647405 -130 36 C-129.37222656 35.23300781 -128.74445313 34.46601562 -128.09765625 33.67578125 C-96.06896899 -4.45360834 -45.91602451 -13.24748046 0 0 Z " fill="#010101" transform="translate(158,13)"/>
<path d="M0 0 C0.33 0 0.66 0 1 0 C1 8.25 1 16.5 1 25 C0.34 25.33 -0.32 25.66 -1 26 C-1 24.68 -1 23.36 -1 22 C-1.66 22.33 -2.32 22.66 -3 23 C-6.3125 23.4375 -6.3125 23.4375 -10 23 C-13.01066181 20.43773463 -14.59121046 18.83955295 -15.4453125 14.99609375 C-15.6443562 11.4995594 -15.07281527 9.13689271 -13.4375 6.0625 C-10.274699 3.38628377 -8.10335951 3.07460654 -4 3 C-3.01 3.66 -2.02 4.32 -1 5 C-0.67 3.35 -0.34 1.7 0 0 Z " fill="#F6F6F6" transform="translate(224,104)"/>
<path d="M0 0 C-1.08215574 8.04402436 -11.92760895 13.82915773 -18 18.5625 C-18.84546387 19.22499756 -18.84546387 19.22499756 -19.70800781 19.90087891 C-23.75719744 23 -23.75719744 23 -26 23 C-24.8917409 14.22758291 -17.11203556 7.73628509 -10.6640625 2.27734375 C-7.1523401 -0.41827415 -4.34727382 -0.08050507 0 0 Z " fill="#F3F3F3" transform="translate(58,42)"/>
</svg>
